<?xml version="1.0" encoding="UTF-8"?>
<svg id="Layer_2" data-name="Layer 2" xmlns="http://www.w3.org/2000/svg" xmlns:xlink="http://www.w3.org/1999/xlink" viewBox="0 0 123.13 143.76">
  <defs>
    <style>
      .cls-1 {
        fill: #ce3631;
      }

      .cls-2 {
        fill: url(#linear-gradient);
      }

      .cls-3 {
        fill: #711d1b;
      }

      .cls-4 {
        fill: #ad302d;
      }
    </style>
    <linearGradient id="linear-gradient" x1="43.85" y1=".01" x2="74.13" y2=".01" gradientUnits="userSpaceOnUse">
      <stop offset="0" stop-color="#6159a0"/>
      <stop offset=".11" stop-color="#7f78b2"/>
      <stop offset=".3" stop-color="#b1acd0"/>
      <stop offset=".44" stop-color="#d0cce3"/>
      <stop offset=".52" stop-color="#dcd8ea"/>
      <stop offset=".7" stop-color="#a7a2ca"/>
      <stop offset=".9" stop-color="#746dab"/>
      <stop offset="1" stop-color="#6159a0"/>
    </linearGradient>
  </defs>
  <g id="Layer_1-2" data-name="Layer 1">
    <g>
      <path class="cls-1" d="M84.58,102.82c0,1.01-.23,2-.65,2.75t0,.01l-7.34,13.06-13.72,24.39c-.41.7-.94.86-1.41.62-.46.24-1,.08-1.41-.62l-13.71-24.39-7.35-13.06h-.01c-.42-.76-.64-1.75-.64-2.76,0-.49.05-.98.16-1.45l4.2-18.41L60.43,8.15h2.04l17.74,74.81,4.21,18.41c.11.47.16.96.16,1.45Z"/>
      <path class="cls-3" d="M84.58,102.82c0,1.01-.23,2-.65,2.75t0,.01l-7.34,13.06-13.72,24.39c-.41.7-.94.86-1.41.62-.46.24-1,.08-1.41-.62l-13.71-24.39-7.35-13.06h-.01c-.42-.76-.64-1.75-.64-2.76,0-.49.05-.98.16-1.45l4.2-18.41L60.43,8.15h2.04l17.74,74.81,4.21,18.41c.11.47.16.96.16,1.45Z"/>
      <g>
        <polygon class="cls-2" points="58.99 0 58.99 0 58.99 .03 58.99 0"/>
        <path class="cls-4" d="M122.85,116.85l-13.32-25.06L63.44,5.05c-.52-.98-.91-1.49-1.87-1.57-.96.08-1.35.59-1.87,1.57L13.61,91.79.29,116.85c-1.03,1.96.89,4.17,2.97,3.43l31.88-11.65,17.07-6.25h.01c.73-.26,1.35-.73,1.8-1.33.45-.59.73-1.31.79-2.09l1.51-19.72,4.31-42.95c.11-1.13,1.76-1.13,1.87,0l4.31,42.95,1.51,19.72c.06.78.34,1.5.79,2.09.45.6,1.07,1.07,1.8,1.33h.01l17.07,6.25,31.88,11.65c2.08.74,4-1.47,2.97-3.43Z"/>
      </g>
    </g>
  </g>
</svg>